<?xml version="1.0" encoding="utf-8"?>
<!-- Generator: Adobe Illustrator 21.0.0, SVG Export Plug-In . SVG Version: 6.00 Build 0)  -->
<svg version="1.2" baseProfile="tiny" id="Biscuit" xmlns="http://www.w3.org/2000/svg" xmlns:xlink="http://www.w3.org/1999/xlink"
	 x="0px" y="0px" viewBox="0 0 260 268.8" xml:space="preserve">
<g id="XMLID_1_">
	<g>
		<path fill="#764D2A" d="M205.4,60.6c8.2,0,14.9,6.7,14.9,14.9s-6.7,14.9-14.9,14.9s-14.9-6.7-14.9-14.9
			C190.5,67.2,197.2,60.6,205.4,60.6z"/>
		<path fill="#8B5F3D" d="M146.9,97.2c10.4,0,18.7,8.4,18.7,18.7s-8.4,18.7-18.7,18.7s-18.7-8.4-18.7-18.7S136.5,97.2,146.9,97.2z"
			/>
		<path fill="#8B5F3D" d="M107,216.9c6.5,0,11.7,5.2,11.7,11.7c0,6.4-5.2,11.7-11.7,11.7c-6.4,0-11.7-5.2-11.7-11.7
			S100.5,216.9,107,216.9z"/>
		<path fill="#E4B15E" d="M178.6,156.3c0,5.3,4.3,9.6,9.6,9.6s9.6-4.3,9.6-9.6s-4.3-9.6-9.6-9.6C182.9,146.7,178.6,151,178.6,156.3z
			 M255,132.5c0,15.8-2.9,31-8.3,44.9c-5.4-6.8-13.7-11.1-23-11.1c-13.3,0-24.6,8.9-28.1,21.1c-6.9-7.9-17-12.9-28.2-12.9
			c-20.6,0-37.3,16.7-37.3,37.3c0,3.8,0.6,7.6,1.7,11c-4.8,5.7-7.5,13.2-6.9,21.4c0.4,4.9,2,9.4,4.5,13.3
			C60.6,257.1,5,201.3,5,132.5C5,63.5,61,7.6,130,7.6S255,63.5,255,132.5z M237.8,130.7c0-9.1-7.4-16.6-16.5-16.6
			s-16.5,7.4-16.5,16.6s7.4,16.5,16.5,16.5C230.4,147.3,237.8,139.9,237.8,130.7z M220.3,75.5c0-8.2-6.7-14.9-14.9-14.9
			s-14.9,6.7-14.9,14.9s6.7,14.9,14.9,14.9S220.3,83.7,220.3,75.5z M165.6,115.9c0-10.3-8.4-18.7-18.7-18.7s-18.7,8.4-18.7,18.7
			s8.4,18.7,18.7,18.7C157.2,134.7,165.6,126.3,165.6,115.9z M140.5,42.4c0-5.8-4.7-10.5-10.5-10.5s-10.5,4.7-10.5,10.5
			s4.7,10.5,10.5,10.5C135.8,53,140.5,48.3,140.5,42.4z M118.6,228.6c0-6.4-5.2-11.7-11.7-11.7c-6.4,0-11.7,5.2-11.7,11.7
			c0,6.4,5.2,11.7,11.7,11.7C113.4,240.2,118.6,235,118.6,228.6z M109.6,94.8c0-5.3-4.3-9.6-9.6-9.6c-5.3,0-9.6,4.3-9.6,9.6
			c0,5.3,4.3,9.6,9.6,9.6C105.3,104.4,109.6,100.1,109.6,94.8z M107.5,168.4c0-21-17-38-38-38s-38,17-38,38s17,38,38,38
			S107.5,189.4,107.5,168.4z M80,72.9C80,64.1,72.9,57,64.1,57s-15.9,7.1-15.9,15.9s7.1,15.9,15.9,15.9C72.9,88.8,80,81.7,80,72.9z"
			/>
		<path fill="#3C2517" d="M100,85.1c5.3,0,9.6,4.3,9.6,9.6c0,5.3-4.3,9.6-9.6,9.6c-5.3,0-9.6-4.3-9.6-9.6
			C90.3,89.5,94.6,85.1,100,85.1z"/>
		<path fill="#764D2A" d="M69.5,130.4c21,0,38,17,38,38s-17,38-38,38s-38-17-38-38C31.6,147.4,48.6,130.4,69.5,130.4z"/>
		<ellipse fill="#8B5F3D" cx="130" cy="42.4" rx="10.5" ry="10.5"/>
		<path fill="#3C2517" d="M188.3,146.7c5.3,0,9.6,4.3,9.6,9.6s-4.3,9.6-9.6,9.6s-9.6-4.3-9.6-9.6C178.6,151,182.9,146.7,188.3,146.7
			z"/>
		<path fill="#8B5F3D" d="M221.3,114.2c9.1,0,16.5,7.4,16.5,16.6s-7.4,16.5-16.5,16.5s-16.5-7.4-16.5-16.5S212.1,114.2,221.3,114.2z
			"/>
		<path fill="#764D2A" d="M64.1,57C72.9,57,80,64.1,80,72.9s-7.1,15.9-15.9,15.9s-15.9-7.1-15.9-15.9S55.3,57,64.1,57z"/>
	</g>
	<g>
		<path fill="none" stroke="#566166" stroke-width="8" stroke-linecap="round" stroke-miterlimit="10" d="M129.2,257.5
			C60.6,257.1,5,201.3,5,132.5C5,63.5,61,7.6,130,7.6s125,55.9,125,124.9c0,15.8-2.9,31-8.3,44.9"/>
		<path fill="none" stroke="#566166" stroke-width="8" stroke-linecap="round" stroke-miterlimit="10" d="M131.7,222.8
			c-1.1-3.5-1.7-7.2-1.7-11c0-20.6,16.7-37.3,37.3-37.3c11.3,0,21.4,5,28.2,12.9"/>
		<path fill="none" stroke="#566166" stroke-width="8" stroke-linecap="round" stroke-miterlimit="10" d="M195.6,187.4
			c3.6-12.2,14.8-21.1,28.1-21.1c9.3,0,17.6,4.3,23,11.1"/>
		<path fill="none" stroke="#566166" stroke-width="8" stroke-linecap="round" stroke-miterlimit="10" d="M129.2,257.5
			c-2.5-3.9-4.1-8.4-4.5-13.3c-0.7-8.2,2.1-15.7,6.9-21.4"/>
		<path fill="none" stroke="#566166" stroke-width="3" stroke-miterlimit="10" d="M190.5,75.5c0-8.2,6.7-14.9,14.9-14.9
			s14.9,6.7,14.9,14.9s-6.7,14.9-14.9,14.9S190.5,83.7,190.5,75.5z"/>
		<path fill="none" stroke="#566166" stroke-width="4" stroke-linecap="round" stroke-miterlimit="10" d="M48.2,72.9
			c0-8.8,7.1-15.9,15.9-15.9S80,64.1,80,72.9s-7.1,15.9-15.9,15.9C55.3,88.8,48.2,81.7,48.2,72.9z"/>
		<path fill="none" stroke="#566166" stroke-width="8" stroke-linecap="round" stroke-miterlimit="10" d="M31.6,168.4
			c0-21,17-38,38-38s38,17,38,38s-17,38-38,38S31.6,189.4,31.6,168.4z"/>
		<path fill="none" stroke="#566166" stroke-width="4" stroke-linecap="round" stroke-linejoin="round" d="M204.7,130.7
			c0-9.1,7.4-16.6,16.5-16.6s16.5,7.4,16.5,16.6s-7.4,16.5-16.5,16.5C212.1,147.3,204.7,139.9,204.7,130.7z"/>
		<path fill="none" stroke="#010101" stroke-width="0.5" stroke-linecap="round" stroke-linejoin="round" d="M90.3,94.8
			c0-5.3,4.3-9.6,9.6-9.6c5.3,0,9.6,4.3,9.6,9.6c0,5.3-4.3,9.6-9.6,9.6C94.6,104.4,90.3,100.1,90.3,94.8z"/>
		<path fill="none" stroke="#010101" stroke-width="0.5" stroke-linecap="round" stroke-linejoin="round" d="M178.6,156.3
			c0-5.3,4.3-9.6,9.6-9.6s9.6,4.3,9.6,9.6s-4.3,9.6-9.6,9.6C182.9,165.9,178.6,161.6,178.6,156.3z"/>
	</g>
</g>
</svg>
