<svg id="Layer_1" data-name="Layer 1" xmlns="http://www.w3.org/2000/svg" viewBox="0 0 414.7 163.56"><defs><style>.cls-1{fill:#e4b05e;}.cls-2{fill:#8a5d3b;}.cls-3{fill:#754c28;}.cls-4,.cls-5,.cls-6,.cls-7{fill:none;stroke:#556064;stroke-linecap:round;}.cls-4,.cls-5,.cls-6{stroke-miterlimit:10;}.cls-4{stroke-width:6px;}.cls-5,.cls-7{stroke-width:2px;}.cls-6{stroke-width:3px;}.cls-7{stroke-linejoin:round;}.cls-10,.cls-8,.cls-9{isolation:isolate;}.cls-9{font-size:85.33px;font-family:MAXWELLLIGHT, MAXWELL LIGHT;letter-spacing:-0.06em;}.cls-10{font-size:93.33px;font-family:TrueLies, True Lies;}</style></defs><title>Full Logo</title><path class="cls-1" d="M102.41,23.17A56,56,0,0,1,114.89,51a13.19,13.19,0,0,0-17.61,9.75,13.2,13.2,0,0,0-9.64,21.64l.36.41A13.2,13.2,0,0,0,89.65,99.3,13,13,0,0,0,95,102.6a56.22,56.22,0,1,1,7.38-79.43ZM99.14,34.68a4.74,4.74,0,1,0-.6,6.68A4.74,4.74,0,0,0,99.14,34.68ZM73.72,17.38a6.71,6.71,0,1,0-.85,9.46A6.71,6.71,0,0,0,73.72,17.38ZM72.54,45.3a8.43,8.43,0,1,0-1.06,11.88A8.43,8.43,0,0,0,72.54,45.3ZM36.88,25.08a4.74,4.74,0,1,0-.6,6.68A4.74,4.74,0,0,0,36.88,25.08ZM59.47,70.56a11.08,11.08,0,1,0-1.4,15.61A11.08,11.08,0,0,0,59.47,70.56ZM74.39,98.09a2.93,2.93,0,1,0-.37,4.12A2.93,2.93,0,0,0,74.39,98.09ZM32.33,49a5.81,5.81,0,1,0-.74,8.18A5.81,5.81,0,0,0,32.33,49Z" transform="translate(0 0)"/><circle class="cls-2" cx="95.51" cy="37.72" r="4.74" transform="translate(-1.97 70.01) rotate(-39.88)"/><circle class="cls-3" cx="68.57" cy="21.69" r="6.71" transform="translate(2.04 49.01) rotate(-39.88)"/><circle class="cls-2" cx="66.07" cy="50.71" r="8.43" transform="translate(-17.14 54.15) rotate(-39.88)"/><circle class="cls-2" cx="33.24" cy="28.12" r="4.74" transform="translate(-10.3 27.85) rotate(-39.88)"/><circle class="cls-3" cx="50.96" cy="77.66" r="11.08" transform="translate(-37.94 50.74) rotate(-39.88)"/><circle class="cls-2" cx="72.15" cy="99.97" r="2.93" transform="translate(-47.32 69.51) rotate(-39.88)"/><circle class="cls-3" cx="27.87" cy="52.75" r="5.81" transform="translate(-27.34 30.14) rotate(-39.88)"/><path class="cls-4" d="M95,102.6A56.21,56.21,0,1,1,114.89,51" transform="translate(0 0)"/><path class="cls-4" d="M88,82.84l-.36-.41a13.2,13.2,0,0,1,9.64-21.64" transform="translate(0 0)"/><path class="cls-4" d="M97.28,60.79A13.19,13.19,0,0,1,114.89,51" transform="translate(0 0)"/><path class="cls-4" d="M95,102.6a13,13,0,0,1-5.38-3.3A13.2,13.2,0,0,1,88,82.84" transform="translate(0 0)"/><circle class="cls-5" cx="27.87" cy="52.75" r="5.81" transform="translate(-27.34 30.14) rotate(-39.88)"/><circle class="cls-6" cx="50.96" cy="77.66" r="11.08" transform="translate(-37.94 50.74) rotate(-39.88)"/><circle class="cls-7" cx="95.51" cy="37.72" r="4.74" transform="translate(-1.97 70.01) rotate(-39.88)"/><g id="layer2"><g id="text3713" class="cls-8"><text class="cls-9" transform="translate(101.39 115.42)">Biscui</text></g><g id="text3843" class="cls-8"><text class="cls-10" transform="translate(202.69 130.52)">Tech</text></g></g></svg>