<?xml version="1.0" encoding="UTF-8"?>
<svg xmlns="http://www.w3.org/2000/svg" xmlns:xlink="http://www.w3.org/1999/xlink" viewBox="0 0 64 64" version="1.1" width="100px" height="100px">
<g id="surface1">
<path style=" fill:#8B8E98;" d="M 59 31 C 59 46.464844 46.464844 59 31 59 C 15.535156 59 3 46.464844 3 31 C 3 15.535156 15.535156 3 31 3 C 46.464844 3 59 15.535156 59 31 Z "/>
<path style=" fill:#7E8189;" d="M 31 54 C 18.296875 54 8 43.703125 8 31 C 8 18.296875 18.296875 8 31 8 C 43.703125 8 54 18.296875 54 31 C 54 43.703125 43.703125 54 31 54 Z "/>
<path style=" fill:#FAEFDE;" d="M 36.078125 43.351563 C 37.777344 45.171875 38.808594 47.515625 39 50 L 39 55.25 C 39 55.800781 39.230469 57.378906 39.898438 57.558594 L 31 59.179688 L 22 57.570313 C 22.71875 57.410156 23 55.800781 23 55.25 C 23 54.699219 23 54.339844 23 52 C 15.210938 53.691406 13.601563 47.699219 13.601563 47.699219 C 12.320313 44.46875 10.488281 43.601563 10.488281 43.601563 C 7.949219 41.871094 10.679688 41.898438 10.679688 41.898438 C 12.488281 42.140625 14.085938 43.210938 15 44.789063 C 17.5 49.058594 21.441406 48.710938 23 48 C 23.261719 46.191406 25.101563 44.070313 25.898438 43.371094 C 19.679688 42.660156 13.140625 40.261719 13.140625 29.53125 C 13.089844 26.746094 14.113281 24.050781 16 22 C 15.148438 19.585938 15.25 16.933594 16.28125 14.589844 C 19.421875 -11.078125 18.628906 13.839844 23.980469 17.460938 C 28.5625 16.210938 33.398438 16.210938 37.980469 17.460938 C 43.320313 13.839844 45.671875 14.589844 45.671875 14.589844 C 46.71875 16.929688 46.835938 19.578125 46 22 C 47.886719 24.042969 48.914063 26.730469 48.871094 29.511719 C 48.859375 40.289063 42.320313 42.660156 36.078125 43.351563 Z "/>
<path style=" fill:#8D6C9F;" d="M 31 2 C 16.855469 2.007813 4.78125 12.21875 2.421875 26.160156 C 0.0625 40.105469 8.105469 53.71875 21.460938 58.378906 C 21.621094 58.496094 21.8125 58.5625 22.011719 58.570313 C 32.902344 62.125 44.867188 58.929688 52.539063 50.421875 C 60.214844 41.910156 62.15625 29.679688 57.5 19.210938 C 52.84375 8.742188 42.457031 2 31 2 Z M 23.699219 57 C 23.882813 56.4375 23.984375 55.851563 24 55.261719 L 24 54.71875 C 24 54.269531 24 53.660156 24 52 C 24.007813 51.695313 23.875 51.402344 23.636719 51.207031 C 23.402344 51.011719 23.089844 50.9375 22.789063 51 C 16.070313 52.460938 14.621094 47.621094 14.558594 47.421875 L 14.558594 47.308594 C 13.976563 45.644531 12.9375 44.175781 11.558594 43.070313 C 12.628906 43.507813 13.523438 44.28125 14.121094 45.269531 C 16.761719 49.800781 21.121094 49.921875 23.421875 48.890625 C 23.734375 48.75 23.953125 48.460938 24 48.121094 C 24.460938 46.574219 25.347656 45.1875 26.558594 44.121094 C 26.855469 43.855469 26.964844 43.445313 26.84375 43.066406 C 26.722656 42.691406 26.394531 42.421875 26 42.378906 C 20.128906 41.710938 14.128906 39.660156 14.128906 29.539063 C 14.089844 27.007813 15.027344 24.558594 16.75 22.699219 C 17.035156 22.425781 17.132813 22.011719 17 21.640625 C 16.277344 19.675781 16.277344 17.515625 17 15.550781 C 17.851563 15.550781 19.921875 15.941406 23.421875 18.308594 C 23.664063 18.476563 23.964844 18.527344 24.25 18.449219 C 28.664063 17.242188 33.316406 17.242188 37.730469 18.449219 C 38.015625 18.527344 38.316406 18.476563 38.558594 18.308594 C 42.070313 15.929688 44.148438 15.570313 44.96875 15.539063 C 45.714844 17.5 45.738281 19.664063 45.039063 21.640625 C 44.894531 21.996094 44.96875 22.40625 45.230469 22.691406 C 46.949219 24.546875 47.882813 27 47.839844 29.53125 C 47.839844 39.660156 41.839844 41.699219 35.949219 42.351563 C 35.554688 42.394531 35.226563 42.667969 35.109375 43.046875 C 34.992188 43.429688 35.109375 43.839844 35.410156 44.101563 C 36.886719 45.734375 37.796875 47.804688 38 50 L 38 55.25 C 38.011719 55.84375 38.109375 56.433594 38.289063 57 C 33.519531 58.347656 28.46875 58.347656 23.699219 57 Z M 40.199219 56.398438 C 40.082031 56.035156 40.015625 55.652344 40 55.269531 L 40 50 C 39.882813 47.886719 39.191406 45.839844 38 44.089844 C 43.550781 43.148438 49.890625 40.269531 49.890625 29.53125 C 49.933594 26.707031 48.960938 23.964844 47.148438 21.800781 C 47.851563 19.296875 47.683594 16.632813 46.671875 14.238281 C 46.558594 13.964844 46.332031 13.75 46.050781 13.660156 C 45.769531 13.570313 43.199219 12.898438 37.871094 16.398438 C 33.386719 15.253906 28.691406 15.253906 24.210938 16.398438 C 18.878906 12.898438 16.308594 13.570313 16.03125 13.660156 C 15.746094 13.75 15.519531 13.964844 15.410156 14.238281 C 14.394531 16.632813 14.226563 19.296875 14.929688 21.800781 C 13.117188 23.964844 12.144531 26.707031 12.191406 29.53125 C 12.191406 40.179688 18.421875 43.109375 23.921875 44.089844 C 23.144531 45.023438 22.554688 46.09375 22.179688 47.25 C 20.761719 47.648438 17.839844 47.660156 15.890625 44.308594 C 14.804688 42.429688 12.894531 41.167969 10.738281 40.910156 C 10.199219 40.910156 8.839844 41 8.519531 42.039063 C 8.199219 43.078125 9.429688 44.039063 9.980469 44.441406 L 10.109375 44.511719 C 10.171875 44.511719 11.628906 45.308594 12.710938 48.039063 C 12.941406 48.75 14.929688 54.140625 22.058594 53.191406 C 22.058594 53.980469 22.058594 54.378906 22.058594 54.691406 L 22.058594 55.25 C 22.042969 55.636719 21.972656 56.015625 21.851563 56.378906 C 9.527344 51.910156 2.195313 39.234375 4.460938 26.324219 C 6.730469 13.414063 17.945313 3.996094 31.054688 3.996094 C 44.164063 3.996094 55.378906 13.414063 57.648438 26.324219 C 59.917969 39.234375 52.582031 51.910156 40.261719 56.378906 Z "/>
<path style=" fill:#8D6C9F;" d="M 31 37 C 30.449219 37 30 37.449219 30 38 L 30 40 C 30 40.550781 30.449219 41 31 41 C 31.550781 41 32 40.550781 32 40 L 32 38 C 32 37.449219 31.550781 37 31 37 Z "/>
<path style=" fill:#8D6C9F;" d="M 35.601563 39.53125 C 35.746094 40.0625 36.296875 40.375 36.828125 40.230469 C 37.363281 40.082031 37.675781 39.53125 37.53125 39 L 37 37.078125 C 36.84375 36.566406 36.304688 36.265625 35.785156 36.40625 C 35.261719 36.546875 34.949219 37.074219 35.070313 37.601563 Z "/>
<path style=" fill:#8D6C9F;" d="M 21.75 34.519531 C 21.519531 34.386719 21.246094 34.351563 20.988281 34.417969 C 20.730469 34.488281 20.511719 34.660156 20.378906 34.890625 L 19.378906 36.621094 C 19.132813 37.09375 19.300781 37.679688 19.765625 37.949219 C 20.230469 38.21875 20.824219 38.070313 21.109375 37.621094 L 22.109375 35.890625 C 22.246094 35.660156 22.28125 35.386719 22.214844 35.128906 C 22.148438 34.875 21.980469 34.652344 21.75 34.519531 Z "/>
<path style=" fill:#8D6C9F;" d="M 40.878906 37.621094 C 41.050781 37.945313 41.386719 38.152344 41.753906 38.15625 C 42.121094 38.160156 42.460938 37.964844 42.640625 37.644531 C 42.816406 37.324219 42.808594 36.929688 42.609375 36.621094 L 41.609375 34.890625 C 41.324219 34.4375 40.730469 34.292969 40.265625 34.5625 C 39.800781 34.828125 39.632813 35.414063 39.878906 35.890625 Z "/>
<path style=" fill:#8D6C9F;" d="M 26.210938 36.371094 C 25.675781 36.230469 25.132813 36.546875 24.988281 37.078125 L 24.46875 39 C 24.363281 39.347656 24.453125 39.730469 24.710938 39.992188 C 24.964844 40.253906 25.34375 40.355469 25.695313 40.257813 C 26.046875 40.160156 26.316406 39.875 26.398438 39.519531 L 26.921875 37.589844 C 27.058594 37.058594 26.742188 36.511719 26.210938 36.371094 Z "/>
<path style=" fill:#8D6C9F;" d="M 41.351563 9.460938 C 40.601563 9.085938 39.835938 8.75 39.050781 8.460938 C 38.542969 8.304688 38.003906 8.566406 37.816406 9.066406 C 37.632813 9.5625 37.863281 10.117188 38.351563 10.328125 C 39.066406 10.597656 39.765625 10.90625 40.449219 11.25 C 40.589844 11.320313 40.742188 11.359375 40.898438 11.359375 C 41.359375 11.355469 41.761719 11.039063 41.867188 10.589844 C 41.972656 10.144531 41.761719 9.679688 41.351563 9.46875 Z "/>
<path style=" fill:#8D6C9F;" d="M 34.648438 7.289063 C 29.484375 6.472656 24.199219 7.429688 19.648438 10.011719 C 19.253906 10.234375 19.058594 10.699219 19.175781 11.136719 C 19.292969 11.578125 19.695313 11.882813 20.148438 11.878906 C 20.320313 11.878906 20.492188 11.835938 20.640625 11.75 C 24.792969 9.398438 29.625 8.523438 34.339844 9.269531 C 34.890625 9.359375 35.410156 8.980469 35.5 8.429688 C 35.589844 7.878906 35.210938 7.359375 34.660156 7.269531 Z "/>
</g>
</svg>
