<?xml version="1.0" encoding="UTF-8"?>
<svg xmlns="http://www.w3.org/2000/svg" xmlns:xlink="http://www.w3.org/1999/xlink" viewBox="0 0 64 64" version="1.1" width="100px" height="100px">
<g id="surface1">
<path style=" fill:#6E91CE;" d="M 13 7 L 51 7 C 54.3125 7 57 9.6875 57 13 L 57 51 C 57 54.3125 54.3125 57 51 57 L 13 57 C 9.6875 57 7 54.3125 7 51 L 7 13 C 7 9.6875 9.6875 7 13 7 Z "/>
<path style=" fill:#FAEFDE;" d="M 46 35 L 39 35 L 39 31.058594 L 41 28 L 47 29 L 47 21 L 38 22 L 32 27 L 32 35 L 25 35 L 25 42 L 32 42 L 32 57 L 39 57 L 39 42 L 46 42 Z "/>
<path style=" fill:#80A6DD;" d="M 11 7 L 53 7 C 55.210938 7 57 8.789063 57 11 C 57 12.65625 55.65625 14 54 14 L 10 14 C 8.34375 14 7 12.65625 7 11 C 7 8.789063 8.789063 7 11 7 Z "/>
<path style=" fill:#8D6C9F;" d="M 51 6 L 13 6 C 9.132813 6 6 9.132813 6 13 L 6 51 C 6 54.867188 9.132813 58 13 58 L 51 58 C 54.867188 58 58 54.867188 58 51 L 58 13 C 58 9.132813 54.867188 6 51 6 Z M 33 56 L 33 41 L 26 41 L 26 36 L 33 36 L 33 31.289063 C 33 25.46875 36.210938 22 41.601563 22 C 43.175781 22 44.753906 22.089844 46.320313 22.269531 L 46.320313 27.660156 L 42.628906 27.660156 C 38.390625 27.660156 37.898438 30.371094 37.898438 32.410156 L 37.898438 36 L 45.769531 36 L 45 41 L 37.898438 41 L 37.898438 56 Z M 56 51 C 56 53.761719 53.761719 56 51 56 L 39.898438 56 L 39.898438 43 L 45.808594 43 C 46.304688 43.007813 46.730469 42.648438 46.808594 42.160156 L 47.949219 35.160156 C 47.996094 34.867188 47.914063 34.570313 47.71875 34.347656 C 47.527344 34.125 47.246094 33.996094 46.949219 34 L 39.949219 34 L 39.949219 32.398438 C 39.949219 30.5 40.339844 29.648438 42.679688 29.648438 L 47.328125 29.648438 C 47.882813 29.648438 48.328125 29.203125 48.328125 28.648438 L 48.328125 21.410156 C 48.332031 20.894531 47.941406 20.460938 47.429688 20.410156 C 45.941406 20.261719 42.988281 19.988281 41.609375 19.988281 C 35.121094 20 31 24.429688 31 31.289063 L 31 34 L 25 34 C 24.449219 34 24 34.449219 24 35 L 24 42 C 24 42.550781 24.449219 43 25 43 L 31 43 L 31 56 L 13 56 C 10.238281 56 8 53.761719 8 51 L 8 13 C 8 10.238281 10.238281 8 13 8 L 51 8 C 53.761719 8 56 10.238281 56 13 Z "/>
<path style=" fill:#8D6C9F;" d="M 17 12 C 16.449219 12 16 12.449219 16 13 L 16 15 C 16 15.550781 16.449219 16 17 16 C 17.550781 16 18 15.550781 18 15 L 18 13 C 18 12.449219 17.550781 12 17 12 Z "/>
<path style=" fill:#8D6C9F;" d="M 12 12 C 11.449219 12 11 12.449219 11 13 L 11 15 C 11 15.550781 11.449219 16 12 16 C 12.550781 16 13 15.550781 13 15 L 13 13 C 13 12.449219 12.550781 12 12 12 Z "/>
<path style=" fill:#8D6C9F;" d="M 32 12 C 31.449219 12 31 12.449219 31 13 L 31 15 C 31 15.550781 31.449219 16 32 16 C 32.550781 16 33 15.550781 33 15 L 33 13 C 33 12.449219 32.550781 12 32 12 Z "/>
<path style=" fill:#8D6C9F;" d="M 37 12 C 36.449219 12 36 12.449219 36 13 L 36 15 C 36 15.550781 36.449219 16 37 16 C 37.550781 16 38 15.550781 38 15 L 38 13 C 38 12.449219 37.550781 12 37 12 Z "/>
<path style=" fill:#8D6C9F;" d="M 42 12 C 41.449219 12 41 12.449219 41 13 L 41 15 C 41 15.550781 41.449219 16 42 16 C 42.550781 16 43 15.550781 43 15 L 43 13 C 43 12.449219 42.550781 12 42 12 Z "/>
<path style=" fill:#8D6C9F;" d="M 47 12 C 46.449219 12 46 12.449219 46 13 L 46 15 C 46 15.550781 46.449219 16 47 16 C 47.550781 16 48 15.550781 48 15 L 48 13 C 48 12.449219 47.550781 12 47 12 Z "/>
<path style=" fill:#8D6C9F;" d="M 52 12 C 51.449219 12 51 12.449219 51 13 L 51 15 C 51 15.550781 51.449219 16 52 16 C 52.550781 16 53 15.550781 53 15 L 53 13 C 53 12.449219 52.550781 12 52 12 Z "/>
<path style=" fill:#8D6C9F;" d="M 22 12 C 21.449219 12 21 12.449219 21 13 L 21 15 C 21 15.550781 21.449219 16 22 16 C 22.550781 16 23 15.550781 23 15 L 23 13 C 23 12.449219 22.550781 12 22 12 Z "/>
<path style=" fill:#8D6C9F;" d="M 27 12 C 26.449219 12 26 12.449219 26 13 L 26 15 C 26 15.550781 26.449219 16 27 16 C 27.550781 16 28 15.550781 28 15 L 28 13 C 28 12.449219 27.550781 12 27 12 Z "/>
</g>
</svg>
