<?xml version="1.0" encoding="UTF-8"?>
<svg xmlns="http://www.w3.org/2000/svg" xmlns:xlink="http://www.w3.org/1999/xlink" viewBox="0 0 64 64" version="1.1" width="100px" height="100px">
<g id="surface1">
<path style=" fill:#58B5E8;" d="M 13 7 L 51 7 C 54.3125 7 57 9.6875 57 13 L 57 51 C 57 54.3125 54.3125 57 51 57 L 13 57 C 9.6875 57 7 54.3125 7 51 L 7 13 C 7 9.6875 9.6875 7 13 7 Z "/>
<path style=" fill:#FAEFDE;" d="M 23 22.5 C 23 24.433594 21.433594 26 19.5 26 C 17.566406 26 16 24.433594 16 22.5 C 16 20.566406 17.566406 19 19.5 19 C 21.433594 19 23 20.566406 23 22.5 Z "/>
<path style=" fill:#FAEFDE;" d="M 39.761719 28 C 37.550781 28 34.761719 29.78125 33.570313 30.789063 L 33.570313 29.460938 C 33.570313 28.90625 33.121094 28.460938 32.570313 28.460938 L 27.480469 28.460938 C 26.925781 28.460938 26.480469 28.90625 26.480469 29.460938 L 26.480469 50.460938 C 26.480469 51.011719 26.925781 51.460938 27.480469 51.460938 L 32.878906 51.460938 C 33.433594 51.460938 33.878906 51.011719 33.878906 50.460938 L 33.878906 39.878906 C 33.878906 36.71875 35.660156 34.539063 37.769531 34.539063 C 39.878906 34.539063 41.140625 36.929688 41.140625 40.050781 L 41.140625 50.480469 C 41.140625 51.03125 41.585938 51.480469 42.140625 51.480469 L 47.539063 51.480469 C 48.09375 51.480469 48.539063 51.03125 48.539063 50.480469 L 48.539063 38.769531 C 48.398438 33.441406 47.371094 28 39.761719 28 Z "/>
<path style=" fill:#FAEFDE;" d="M 16 29 L 23 29 L 23 51 L 16 51 Z "/>
<path style=" fill:#65C5EF;" d="M 11 7 L 53 7 C 55.210938 7 57 8.789063 57 11 C 57 12.65625 55.65625 14 54 14 L 10 14 C 8.34375 14 7 12.65625 7 11 C 7 8.789063 8.789063 7 11 7 Z "/>
<path style=" fill:#8D6C9F;" d="M 23 28 L 16 28 C 15.449219 28 15 28.449219 15 29 L 15 51 C 15 51.550781 15.449219 52 16 52 L 23 52 C 23.550781 52 24 51.550781 24 51 L 24 29 C 24 28.449219 23.550781 28 23 28 Z M 22 50 L 17 50 L 17 30 L 22 30 Z "/>
<path style=" fill:#8D6C9F;" d="M 39.878906 27.441406 C 37.902344 27.414063 35.976563 28.078125 34.441406 29.320313 L 34.441406 29 C 34.441406 28.449219 33.992188 28 33.441406 28 L 27 28 C 26.449219 28 26 28.449219 26 29 L 26 51 C 26 51.550781 26.449219 52 27 52 L 33.699219 52 C 34.253906 52 34.699219 51.550781 34.699219 51 L 34.699219 39.890625 C 34.699219 36.578125 35.519531 35.339844 37.699219 35.339844 C 39.878906 35.339844 40.191406 36.800781 40.191406 40.058594 L 40.191406 51 C 40.191406 51.550781 40.636719 52 41.191406 52 L 47.898438 52 C 48.453125 52 48.898438 51.550781 48.898438 51 L 48.898438 38.71875 C 48.921875 33.140625 47.851563 27.441406 39.878906 27.441406 Z M 46.878906 50 L 42.210938 50 L 42.210938 40.058594 C 42.210938 37.710938 42.210938 33.339844 37.71875 33.339844 C 32.71875 33.339844 32.71875 38.269531 32.71875 39.890625 L 32.71875 50 L 28 50 L 28 30 L 32.429688 30 L 32.429688 32 C 32.472656 32.570313 32.949219 33.007813 33.519531 33 C 33.886719 33 34.226563 32.796875 34.398438 32.46875 C 35.527344 30.542969 37.625 29.386719 39.859375 29.46875 C 45.730469 29.46875 46.859375 33.019531 46.859375 38.761719 Z "/>
<path style=" fill:#8D6C9F;" d="M 19.5 18 C 17.015625 18 15 20.015625 15 22.5 C 15 24.984375 17.015625 27 19.5 27 C 21.984375 27 24 24.984375 24 22.5 C 24 20.015625 21.984375 18 19.5 18 Z M 19.5 25.328125 C 17.9375 25.328125 16.671875 24.0625 16.671875 22.5 C 16.671875 20.9375 17.9375 19.671875 19.5 19.671875 C 21.0625 19.671875 22.328125 20.9375 22.328125 22.5 C 22.328125 24.0625 21.0625 25.328125 19.5 25.328125 Z "/>
<path style=" fill:#8D6C9F;" d="M 51 6 L 13 6 C 9.132813 6 6 9.132813 6 13 L 6 51 C 6 54.867188 9.132813 58 13 58 L 51 58 C 54.867188 58 58 54.867188 58 51 L 58 13 C 58 9.132813 54.867188 6 51 6 Z M 56 51 C 56 53.761719 53.761719 56 51 56 L 13 56 C 10.238281 56 8 53.761719 8 51 L 8 13 C 8 10.238281 10.238281 8 13 8 L 51 8 C 53.761719 8 56 10.238281 56 13 Z "/>
<path style=" fill:#8D6C9F;" d="M 17 16 C 17.550781 16 18 15.550781 18 15 L 18 13 C 18 12.449219 17.550781 12 17 12 C 16.449219 12 16 12.449219 16 13 L 16 15 C 16 15.550781 16.449219 16 17 16 Z "/>
<path style=" fill:#8D6C9F;" d="M 12 12 C 11.449219 12 11 12.449219 11 13 L 11 15 C 11 15.550781 11.449219 16 12 16 C 12.550781 16 13 15.550781 13 15 L 13 13 C 13 12.449219 12.550781 12 12 12 Z "/>
<path style=" fill:#8D6C9F;" d="M 32 16 C 32.550781 16 33 15.550781 33 15 L 33 13 C 33 12.449219 32.550781 12 32 12 C 31.449219 12 31 12.449219 31 13 L 31 15 C 31 15.550781 31.449219 16 32 16 Z "/>
<path style=" fill:#8D6C9F;" d="M 37 16 C 37.550781 16 38 15.550781 38 15 L 38 13 C 38 12.449219 37.550781 12 37 12 C 36.449219 12 36 12.449219 36 13 L 36 15 C 36 15.550781 36.449219 16 37 16 Z "/>
<path style=" fill:#8D6C9F;" d="M 42 16 C 42.550781 16 43 15.550781 43 15 L 43 13 C 43 12.449219 42.550781 12 42 12 C 41.449219 12 41 12.449219 41 13 L 41 15 C 41 15.550781 41.449219 16 42 16 Z "/>
<path style=" fill:#8D6C9F;" d="M 47 16 C 47.550781 16 48 15.550781 48 15 L 48 13 C 48 12.449219 47.550781 12 47 12 C 46.449219 12 46 12.449219 46 13 L 46 15 C 46 15.550781 46.449219 16 47 16 Z "/>
<path style=" fill:#8D6C9F;" d="M 52 12 C 51.449219 12 51 12.449219 51 13 L 51 15 C 51 15.550781 51.449219 16 52 16 C 52.550781 16 53 15.550781 53 15 L 53 13 C 53 12.449219 52.550781 12 52 12 Z "/>
<path style=" fill:#8D6C9F;" d="M 22 16 C 22.550781 16 23 15.550781 23 15 L 23 13 C 23 12.449219 22.550781 12 22 12 C 21.449219 12 21 12.449219 21 13 L 21 15 C 21 15.550781 21.449219 16 22 16 Z "/>
<path style=" fill:#8D6C9F;" d="M 27 16 C 27.550781 16 28 15.550781 28 15 L 28 13 C 28 12.449219 27.550781 12 27 12 C 26.449219 12 26 12.449219 26 13 L 26 15 C 26 15.550781 26.449219 16 27 16 Z "/>
</g>
</svg>
