<?xml version="1.0" encoding="UTF-8"?>
<svg xmlns="http://www.w3.org/2000/svg" xmlns:xlink="http://www.w3.org/1999/xlink" viewBox="0 0 64 64" version="1.1" width="100px" height="100px">
<g id="surface1">
<path style=" fill:#85CBF8;" d="M 13 7 L 51 7 C 54.3125 7 57 9.6875 57 13 L 57 51 C 57 54.3125 54.3125 57 51 57 L 13 57 C 9.6875 57 7 54.3125 7 51 L 7 13 C 7 9.6875 9.6875 7 13 7 Z "/>
<path style=" fill:#FAEFDE;" d="M 49.488281 24.121094 L 48.800781 24.398438 C 49.207031 23.78125 49.523438 23.109375 49.738281 22.398438 C 49.835938 22.058594 49.714844 21.691406 49.433594 21.472656 C 49.152344 21.253906 48.769531 21.226563 48.460938 21.398438 C 47.320313 22.078125 46.082031 22.578125 44.789063 22.878906 C 42.519531 20.75 39.199219 20.175781 36.34375 21.414063 C 33.488281 22.652344 31.640625 25.46875 31.640625 28.578125 C 31.640625 28.785156 31.640625 28.992188 31.640625 29.199219 C 26.730469 28.65625 22.226563 26.214844 19.101563 22.390625 C 18.917969 22.167969 18.636719 22.046875 18.351563 22.070313 C 18.0625 22.089844 17.804688 22.25 17.660156 22.5 C 16.21875 24.980469 16.253906 28.050781 17.75 30.5 C 17.480469 30.390625 17.175781 30.421875 16.933594 30.582031 C 16.691406 30.742188 16.546875 31.011719 16.539063 31.300781 L 16.539063 31.398438 C 16.554688 33.789063 17.660156 36.039063 19.539063 37.511719 C 19.101563 37.671875 18.867188 38.144531 19 38.589844 C 19.773438 40.960938 21.628906 42.816406 24 43.589844 C 21.609375 44.890625 18.875 45.417969 16.171875 45.101563 C 15.765625 45.054688 15.382813 45.292969 15.246094 45.675781 C 15.109375 46.058594 15.25 46.488281 15.589844 46.710938 C 18.898438 48.847656 22.75 49.992188 26.691406 50 C 32.535156 50.136719 38.144531 47.675781 42 43.28125 C 45.375 39.441406 47.253906 34.519531 47.300781 29.410156 C 47.300781 29.25 47.300781 29.101563 47.300781 28.941406 C 48.585938 27.953125 49.699219 26.757813 50.601563 25.410156 C 50.808594 25.085938 50.785156 24.664063 50.535156 24.367188 C 50.289063 24.070313 49.875 23.96875 49.519531 24.121094 Z "/>
<path style=" fill:#9FDDFF;" d="M 11 7 L 53 7 C 55.210938 7 57 8.789063 57 11 C 57 12.65625 55.65625 14 54 14 L 10 14 C 8.34375 14 7 12.65625 7 11 C 7 8.789063 8.789063 7 11 7 Z "/>
<path style=" fill:#8D6C9F;" d="M 51 6 L 13 6 C 9.132813 6 6 9.132813 6 13 L 6 51 C 6 54.867188 9.132813 58 13 58 L 51 58 C 54.867188 58 58 54.867188 58 51 L 58 13 C 58 9.132813 54.867188 6 51 6 Z M 56 51 C 56 53.761719 53.761719 56 51 56 L 13 56 C 10.238281 56 8 53.761719 8 51 L 8 13 C 8 10.238281 10.238281 8 13 8 L 51 8 C 53.761719 8 56 10.238281 56 13 Z "/>
<path style=" fill:#8D6C9F;" d="M 17 16 C 17.550781 16 18 15.550781 18 15 L 18 13 C 18 12.449219 17.550781 12 17 12 C 16.449219 12 16 12.449219 16 13 L 16 15 C 16 15.550781 16.449219 16 17 16 Z "/>
<path style=" fill:#8D6C9F;" d="M 12 12 C 11.449219 12 11 12.449219 11 13 L 11 15 C 11 15.550781 11.449219 16 12 16 C 12.550781 16 13 15.550781 13 15 L 13 13 C 13 12.449219 12.550781 12 12 12 Z "/>
<path style=" fill:#8D6C9F;" d="M 32 16 C 32.550781 16 33 15.550781 33 15 L 33 13 C 33 12.449219 32.550781 12 32 12 C 31.449219 12 31 12.449219 31 13 L 31 15 C 31 15.550781 31.449219 16 32 16 Z "/>
<path style=" fill:#8D6C9F;" d="M 37 16 C 37.550781 16 38 15.550781 38 15 L 38 13 C 38 12.449219 37.550781 12 37 12 C 36.449219 12 36 12.449219 36 13 L 36 15 C 36 15.550781 36.449219 16 37 16 Z "/>
<path style=" fill:#8D6C9F;" d="M 42 16 C 42.550781 16 43 15.550781 43 15 L 43 13 C 43 12.449219 42.550781 12 42 12 C 41.449219 12 41 12.449219 41 13 L 41 15 C 41 15.550781 41.449219 16 42 16 Z "/>
<path style=" fill:#8D6C9F;" d="M 47 16 C 47.550781 16 48 15.550781 48 15 L 48 13 C 48 12.449219 47.550781 12 47 12 C 46.449219 12 46 12.449219 46 13 L 46 15 C 46 15.550781 46.449219 16 47 16 Z "/>
<path style=" fill:#8D6C9F;" d="M 52 16 C 52.550781 16 53 15.550781 53 15 L 53 13 C 53 12.449219 52.550781 12 52 12 C 51.449219 12 51 12.449219 51 13 L 51 15 C 51 15.550781 51.449219 16 52 16 Z "/>
<path style=" fill:#8D6C9F;" d="M 22 16 C 22.550781 16 23 15.550781 23 15 L 23 13 C 23 12.449219 22.550781 12 22 12 C 21.449219 12 21 12.449219 21 13 L 21 15 C 21 15.550781 21.449219 16 22 16 Z "/>
<path style=" fill:#8D6C9F;" d="M 27 16 C 27.550781 16 28 15.550781 28 15 L 28 13 C 28 12.449219 27.550781 12 27 12 C 26.449219 12 26 12.449219 26 13 L 26 15 C 26 15.550781 26.449219 16 27 16 Z "/>
<path style=" fill:#8D6C9F;" d="M 49.488281 24.121094 L 48.800781 24.398438 C 49.207031 23.78125 49.523438 23.109375 49.738281 22.398438 C 49.835938 22.058594 49.714844 21.691406 49.433594 21.472656 C 49.152344 21.253906 48.769531 21.226563 48.460938 21.398438 C 47.320313 22.078125 46.082031 22.578125 44.789063 22.878906 C 42.519531 20.75 39.199219 20.175781 36.34375 21.414063 C 33.488281 22.652344 31.640625 25.46875 31.640625 28.578125 C 31.640625 28.785156 31.640625 28.992188 31.640625 29.199219 C 26.730469 28.65625 22.226563 26.214844 19.101563 22.390625 C 18.917969 22.167969 18.636719 22.046875 18.351563 22.070313 C 18.0625 22.089844 17.804688 22.25 17.660156 22.5 C 16.21875 24.980469 16.253906 28.050781 17.75 30.5 C 17.480469 30.390625 17.175781 30.421875 16.933594 30.582031 C 16.691406 30.742188 16.546875 31.011719 16.539063 31.300781 L 16.539063 31.398438 C 16.554688 33.789063 17.660156 36.039063 19.539063 37.511719 C 19.101563 37.671875 18.867188 38.144531 19 38.589844 C 19.773438 40.960938 21.628906 42.816406 24 43.589844 C 21.609375 44.890625 18.875 45.417969 16.171875 45.101563 C 15.765625 45.054688 15.382813 45.292969 15.246094 45.675781 C 15.109375 46.058594 15.25 46.488281 15.589844 46.710938 C 18.898438 48.847656 22.75 49.992188 26.691406 50 C 32.535156 50.136719 38.144531 47.675781 42 43.28125 C 45.375 39.441406 47.253906 34.519531 47.300781 29.410156 C 47.300781 29.25 47.300781 29.101563 47.300781 28.941406 C 48.585938 27.953125 49.699219 26.757813 50.601563 25.410156 C 50.808594 25.085938 50.785156 24.664063 50.535156 24.367188 C 50.289063 24.070313 49.875 23.96875 49.519531 24.121094 Z M 45.871094 27.800781 C 45.632813 27.972656 45.496094 28.253906 45.511719 28.550781 C 45.511719 28.828125 45.511719 29.121094 45.511719 29.410156 C 45.503906 35.671875 42.390625 41.519531 37.195313 45.015625 C 32.003906 48.515625 25.414063 49.207031 19.609375 46.859375 C 22.253906 46.539063 24.761719 45.5 26.859375 43.859375 C 27.152344 43.628906 27.265625 43.242188 27.148438 42.886719 C 27.027344 42.535156 26.703125 42.296875 26.328125 42.289063 C 24.246094 42.253906 22.324219 41.148438 21.25 39.359375 C 21.910156 39.351563 22.5625 39.261719 23.199219 39.089844 C 23.589844 38.980469 23.859375 38.617188 23.84375 38.210938 C 23.828125 37.804688 23.539063 37.460938 23.140625 37.378906 C 20.796875 36.898438 18.957031 35.085938 18.441406 32.75 C 19.113281 32.960938 19.8125 33.078125 20.519531 33.101563 C 20.914063 33.121094 21.269531 32.867188 21.378906 32.488281 C 21.5 32.117188 21.355469 31.707031 21.03125 31.488281 C 18.769531 29.984375 17.789063 27.152344 18.628906 24.570313 C 22.277344 28.472656 27.296875 30.804688 32.628906 31.078125 C 32.90625 31.097656 33.171875 30.984375 33.351563 30.769531 C 33.523438 30.558594 33.59375 30.277344 33.53125 30.011719 C 32.917969 27.34375 34.164063 24.601563 36.574219 23.308594 C 38.984375 22.019531 41.960938 22.503906 43.839844 24.488281 C 44.046875 24.710938 44.351563 24.808594 44.648438 24.75 C 45.363281 24.609375 46.066406 24.414063 46.75 24.171875 C 46.351563 24.609375 45.886719 24.984375 45.378906 25.289063 C 45.050781 25.523438 44.925781 25.949219 45.070313 26.328125 C 45.21875 26.703125 45.601563 26.929688 46 26.878906 C 46.421875 26.828125 46.835938 26.761719 47.25 26.679688 C 46.816406 27.085938 46.355469 27.457031 45.871094 27.800781 Z "/>
</g>
</svg>
